<mxfile host="app.diagrams.net" modified="2024-03-27T09:49:54.537Z" agent="Mozilla/5.0 (Windows NT 10.0; Win64; x64) AppleWebKit/537.36 (KHTML, like Gecko) Chrome/122.0.0.0 Safari/537.36 Edg/122.0.0.0" etag="EL3GvenxxMsnwe0PkIBF" version="24.0.7" type="github">
  <diagram name="第 1 页" id="SJl4heF6QDPqfDFAQpFO">
    <mxGraphModel dx="1386" dy="751" grid="1" gridSize="10" guides="1" tooltips="1" connect="1" arrows="1" fold="1" page="1" pageScale="1" pageWidth="827" pageHeight="1169" math="0" shadow="0">
      <root>
        <mxCell id="0" />
        <mxCell id="1" parent="0" />
        <mxCell id="u3cb8cZpQzkLi7kSh3im-46" value="" style="rounded=0;whiteSpace=wrap;html=1;fillColor=#97D077;" vertex="1" parent="1">
          <mxGeometry x="500" y="260" width="170" height="510" as="geometry" />
        </mxCell>
        <mxCell id="u3cb8cZpQzkLi7kSh3im-44" value="" style="rounded=0;whiteSpace=wrap;html=1;fillColor=#97D077;" vertex="1" parent="1">
          <mxGeometry x="310" y="260" width="170" height="510" as="geometry" />
        </mxCell>
        <mxCell id="u3cb8cZpQzkLi7kSh3im-42" value="" style="rounded=0;whiteSpace=wrap;html=1;fillColor=#97D077;" vertex="1" parent="1">
          <mxGeometry x="120" y="260" width="170" height="510" as="geometry" />
        </mxCell>
        <mxCell id="u3cb8cZpQzkLi7kSh3im-1" value="Nginx" style="rounded=1;whiteSpace=wrap;html=1;" vertex="1" parent="1">
          <mxGeometry x="330" y="170" width="120" height="60" as="geometry" />
        </mxCell>
        <mxCell id="u3cb8cZpQzkLi7kSh3im-13" style="edgeStyle=orthogonalEdgeStyle;rounded=0;orthogonalLoop=1;jettySize=auto;html=1;exitX=0.5;exitY=0.5;exitDx=0;exitDy=0;exitPerimeter=0;" edge="1" parent="1" source="u3cb8cZpQzkLi7kSh3im-2">
          <mxGeometry relative="1" as="geometry">
            <mxPoint x="390" y="170" as="targetPoint" />
          </mxGeometry>
        </mxCell>
        <mxCell id="u3cb8cZpQzkLi7kSh3im-2" value="Actor" style="shape=umlActor;verticalLabelPosition=bottom;verticalAlign=top;html=1;outlineConnect=0;" vertex="1" parent="1">
          <mxGeometry x="375" y="40" width="30" height="60" as="geometry" />
        </mxCell>
        <mxCell id="u3cb8cZpQzkLi7kSh3im-11" style="edgeStyle=orthogonalEdgeStyle;rounded=0;orthogonalLoop=1;jettySize=auto;html=1;exitX=1;exitY=1;exitDx=0;exitDy=0;exitPerimeter=0;" edge="1" parent="1" source="u3cb8cZpQzkLi7kSh3im-3" target="u3cb8cZpQzkLi7kSh3im-1">
          <mxGeometry relative="1" as="geometry" />
        </mxCell>
        <mxCell id="u3cb8cZpQzkLi7kSh3im-3" value="Actor" style="shape=umlActor;verticalLabelPosition=bottom;verticalAlign=top;html=1;outlineConnect=0;" vertex="1" parent="1">
          <mxGeometry x="230" y="70" width="30" height="60" as="geometry" />
        </mxCell>
        <mxCell id="u3cb8cZpQzkLi7kSh3im-14" style="edgeStyle=orthogonalEdgeStyle;rounded=0;orthogonalLoop=1;jettySize=auto;html=1;exitX=0;exitY=1;exitDx=0;exitDy=0;exitPerimeter=0;entryX=0.5;entryY=0;entryDx=0;entryDy=0;" edge="1" parent="1" source="u3cb8cZpQzkLi7kSh3im-4" target="u3cb8cZpQzkLi7kSh3im-1">
          <mxGeometry relative="1" as="geometry" />
        </mxCell>
        <mxCell id="u3cb8cZpQzkLi7kSh3im-4" value="Actor" style="shape=umlActor;verticalLabelPosition=bottom;verticalAlign=top;html=1;outlineConnect=0;" vertex="1" parent="1">
          <mxGeometry x="520" y="70" width="30" height="60" as="geometry" />
        </mxCell>
        <mxCell id="u3cb8cZpQzkLi7kSh3im-15" value="" style="rounded=0;whiteSpace=wrap;html=1;fillColor=#E6D0DE;" vertex="1" parent="1">
          <mxGeometry x="80" y="310" width="630" height="330" as="geometry" />
        </mxCell>
        <mxCell id="u3cb8cZpQzkLi7kSh3im-16" value="FE&lt;div&gt;（Master）&lt;/div&gt;" style="rounded=1;whiteSpace=wrap;html=1;fillColor=#D4E1F5;" vertex="1" parent="1">
          <mxGeometry x="130" y="395" width="120" height="60" as="geometry" />
        </mxCell>
        <mxCell id="u3cb8cZpQzkLi7kSh3im-17" value="FE&lt;div&gt;（Follower）&lt;/div&gt;" style="rounded=1;whiteSpace=wrap;html=1;fillColor=#D4E1F5;" vertex="1" parent="1">
          <mxGeometry x="330" y="395" width="120" height="60" as="geometry" />
        </mxCell>
        <mxCell id="u3cb8cZpQzkLi7kSh3im-18" value="FE&lt;div&gt;（Follower）&lt;/div&gt;" style="rounded=1;whiteSpace=wrap;html=1;fillColor=#D4E1F5;" vertex="1" parent="1">
          <mxGeometry x="525" y="395" width="120" height="60" as="geometry" />
        </mxCell>
        <mxCell id="u3cb8cZpQzkLi7kSh3im-19" value="Doris" style="text;html=1;align=center;verticalAlign=middle;whiteSpace=wrap;rounded=0;fontSize=25;" vertex="1" parent="1">
          <mxGeometry x="110" y="320" width="60" height="30" as="geometry" />
        </mxCell>
        <mxCell id="u3cb8cZpQzkLi7kSh3im-20" value="" style="endArrow=classic;startArrow=classic;html=1;rounded=0;entryX=0;entryY=0.5;entryDx=0;entryDy=0;exitX=1;exitY=0.5;exitDx=0;exitDy=0;" edge="1" parent="1" source="u3cb8cZpQzkLi7kSh3im-16" target="u3cb8cZpQzkLi7kSh3im-17">
          <mxGeometry width="50" height="50" relative="1" as="geometry">
            <mxPoint x="250" y="445" as="sourcePoint" />
            <mxPoint x="300" y="395" as="targetPoint" />
          </mxGeometry>
        </mxCell>
        <mxCell id="u3cb8cZpQzkLi7kSh3im-21" value="" style="endArrow=classic;startArrow=classic;html=1;rounded=0;exitX=1;exitY=0.5;exitDx=0;exitDy=0;entryX=0;entryY=0.5;entryDx=0;entryDy=0;" edge="1" parent="1" target="u3cb8cZpQzkLi7kSh3im-18">
          <mxGeometry width="50" height="50" relative="1" as="geometry">
            <mxPoint x="450" y="424.5" as="sourcePoint" />
            <mxPoint x="520" y="425" as="targetPoint" />
          </mxGeometry>
        </mxCell>
        <mxCell id="u3cb8cZpQzkLi7kSh3im-22" value="BE" style="rounded=1;whiteSpace=wrap;html=1;fillColor=#7EA6E0;" vertex="1" parent="1">
          <mxGeometry x="130" y="525" width="120" height="60" as="geometry" />
        </mxCell>
        <mxCell id="u3cb8cZpQzkLi7kSh3im-23" value="BE" style="rounded=1;whiteSpace=wrap;html=1;fillColor=#7EA6E0;" vertex="1" parent="1">
          <mxGeometry x="330" y="525" width="120" height="60" as="geometry" />
        </mxCell>
        <mxCell id="u3cb8cZpQzkLi7kSh3im-24" value="BE" style="rounded=1;whiteSpace=wrap;html=1;fillColor=#7EA6E0;" vertex="1" parent="1">
          <mxGeometry x="525" y="525" width="120" height="60" as="geometry" />
        </mxCell>
        <mxCell id="u3cb8cZpQzkLi7kSh3im-25" value="" style="endArrow=classic;startArrow=classic;html=1;rounded=0;entryX=0;entryY=0.5;entryDx=0;entryDy=0;" edge="1" parent="1">
          <mxGeometry width="50" height="50" relative="1" as="geometry">
            <mxPoint x="250" y="555" as="sourcePoint" />
            <mxPoint x="330" y="554.5" as="targetPoint" />
          </mxGeometry>
        </mxCell>
        <mxCell id="u3cb8cZpQzkLi7kSh3im-26" value="" style="endArrow=classic;startArrow=classic;html=1;rounded=0;entryX=0;entryY=0.5;entryDx=0;entryDy=0;exitX=1;exitY=0.5;exitDx=0;exitDy=0;" edge="1" parent="1" target="u3cb8cZpQzkLi7kSh3im-24">
          <mxGeometry width="50" height="50" relative="1" as="geometry">
            <mxPoint x="450" y="554.5" as="sourcePoint" />
            <mxPoint x="550" y="554.5" as="targetPoint" />
          </mxGeometry>
        </mxCell>
        <mxCell id="u3cb8cZpQzkLi7kSh3im-29" value="" style="endArrow=classic;html=1;rounded=0;exitX=0.5;exitY=1;exitDx=0;exitDy=0;" edge="1" parent="1" source="u3cb8cZpQzkLi7kSh3im-16" target="u3cb8cZpQzkLi7kSh3im-22">
          <mxGeometry width="50" height="50" relative="1" as="geometry">
            <mxPoint x="170" y="455" as="sourcePoint" />
            <mxPoint x="220" y="405" as="targetPoint" />
          </mxGeometry>
        </mxCell>
        <mxCell id="u3cb8cZpQzkLi7kSh3im-30" value="" style="endArrow=classic;html=1;rounded=0;entryX=0.5;entryY=0;entryDx=0;entryDy=0;exitX=0.5;exitY=1;exitDx=0;exitDy=0;" edge="1" parent="1" source="u3cb8cZpQzkLi7kSh3im-16" target="u3cb8cZpQzkLi7kSh3im-23">
          <mxGeometry width="50" height="50" relative="1" as="geometry">
            <mxPoint x="170" y="455" as="sourcePoint" />
            <mxPoint x="220" y="405" as="targetPoint" />
          </mxGeometry>
        </mxCell>
        <mxCell id="u3cb8cZpQzkLi7kSh3im-31" value="" style="endArrow=classic;html=1;rounded=0;entryX=0.5;entryY=0;entryDx=0;entryDy=0;" edge="1" parent="1" target="u3cb8cZpQzkLi7kSh3im-24">
          <mxGeometry width="50" height="50" relative="1" as="geometry">
            <mxPoint x="190" y="455" as="sourcePoint" />
            <mxPoint x="220" y="405" as="targetPoint" />
          </mxGeometry>
        </mxCell>
        <mxCell id="u3cb8cZpQzkLi7kSh3im-32" value="" style="endArrow=classic;html=1;rounded=0;entryX=0.5;entryY=0;entryDx=0;entryDy=0;" edge="1" parent="1" target="u3cb8cZpQzkLi7kSh3im-22">
          <mxGeometry width="50" height="50" relative="1" as="geometry">
            <mxPoint x="390" y="455" as="sourcePoint" />
            <mxPoint x="440" y="405" as="targetPoint" />
          </mxGeometry>
        </mxCell>
        <mxCell id="u3cb8cZpQzkLi7kSh3im-33" value="" style="endArrow=classic;html=1;rounded=0;entryX=0.5;entryY=0;entryDx=0;entryDy=0;" edge="1" parent="1" target="u3cb8cZpQzkLi7kSh3im-23">
          <mxGeometry width="50" height="50" relative="1" as="geometry">
            <mxPoint x="390" y="455" as="sourcePoint" />
            <mxPoint x="440" y="405" as="targetPoint" />
          </mxGeometry>
        </mxCell>
        <mxCell id="u3cb8cZpQzkLi7kSh3im-34" value="" style="endArrow=classic;html=1;rounded=0;entryX=0.5;entryY=0;entryDx=0;entryDy=0;" edge="1" parent="1" target="u3cb8cZpQzkLi7kSh3im-24">
          <mxGeometry width="50" height="50" relative="1" as="geometry">
            <mxPoint x="390" y="455" as="sourcePoint" />
            <mxPoint x="440" y="405" as="targetPoint" />
          </mxGeometry>
        </mxCell>
        <mxCell id="u3cb8cZpQzkLi7kSh3im-35" value="" style="endArrow=classic;html=1;rounded=0;entryX=0.5;entryY=0;entryDx=0;entryDy=0;exitX=0.5;exitY=1;exitDx=0;exitDy=0;" edge="1" parent="1" source="u3cb8cZpQzkLi7kSh3im-18" target="u3cb8cZpQzkLi7kSh3im-22">
          <mxGeometry width="50" height="50" relative="1" as="geometry">
            <mxPoint x="610" y="455" as="sourcePoint" />
            <mxPoint x="660" y="405" as="targetPoint" />
          </mxGeometry>
        </mxCell>
        <mxCell id="u3cb8cZpQzkLi7kSh3im-36" value="" style="endArrow=classic;html=1;rounded=0;exitX=0.5;exitY=1;exitDx=0;exitDy=0;" edge="1" parent="1" source="u3cb8cZpQzkLi7kSh3im-18">
          <mxGeometry width="50" height="50" relative="1" as="geometry">
            <mxPoint x="610" y="455" as="sourcePoint" />
            <mxPoint x="390" y="525" as="targetPoint" />
          </mxGeometry>
        </mxCell>
        <mxCell id="u3cb8cZpQzkLi7kSh3im-37" value="" style="endArrow=classic;html=1;rounded=0;entryX=0.5;entryY=0;entryDx=0;entryDy=0;exitX=0.5;exitY=1;exitDx=0;exitDy=0;" edge="1" parent="1" source="u3cb8cZpQzkLi7kSh3im-18" target="u3cb8cZpQzkLi7kSh3im-24">
          <mxGeometry width="50" height="50" relative="1" as="geometry">
            <mxPoint x="610" y="455" as="sourcePoint" />
            <mxPoint x="660" y="405" as="targetPoint" />
          </mxGeometry>
        </mxCell>
        <mxCell id="u3cb8cZpQzkLi7kSh3im-38" value="" style="endArrow=classic;html=1;rounded=0;entryX=0.5;entryY=0;entryDx=0;entryDy=0;exitX=0.5;exitY=1;exitDx=0;exitDy=0;" edge="1" parent="1" source="u3cb8cZpQzkLi7kSh3im-1" target="u3cb8cZpQzkLi7kSh3im-16">
          <mxGeometry width="50" height="50" relative="1" as="geometry">
            <mxPoint x="390" y="260" as="sourcePoint" />
            <mxPoint x="440" y="210" as="targetPoint" />
          </mxGeometry>
        </mxCell>
        <mxCell id="u3cb8cZpQzkLi7kSh3im-39" value="" style="endArrow=classic;html=1;rounded=0;exitX=0.5;exitY=1;exitDx=0;exitDy=0;" edge="1" parent="1" source="u3cb8cZpQzkLi7kSh3im-1" target="u3cb8cZpQzkLi7kSh3im-17">
          <mxGeometry width="50" height="50" relative="1" as="geometry">
            <mxPoint x="390" y="260" as="sourcePoint" />
            <mxPoint x="440" y="210" as="targetPoint" />
          </mxGeometry>
        </mxCell>
        <mxCell id="u3cb8cZpQzkLi7kSh3im-40" value="" style="endArrow=classic;html=1;rounded=0;entryX=0.5;entryY=0;entryDx=0;entryDy=0;exitX=0.5;exitY=1;exitDx=0;exitDy=0;" edge="1" parent="1" source="u3cb8cZpQzkLi7kSh3im-1" target="u3cb8cZpQzkLi7kSh3im-18">
          <mxGeometry width="50" height="50" relative="1" as="geometry">
            <mxPoint x="390" y="260" as="sourcePoint" />
            <mxPoint x="440" y="210" as="targetPoint" />
          </mxGeometry>
        </mxCell>
        <mxCell id="u3cb8cZpQzkLi7kSh3im-43" value="137" style="text;html=1;align=center;verticalAlign=middle;whiteSpace=wrap;rounded=0;fontSize=20;" vertex="1" parent="1">
          <mxGeometry x="130" y="270" width="60" height="30" as="geometry" />
        </mxCell>
        <mxCell id="u3cb8cZpQzkLi7kSh3im-45" value="138" style="text;html=1;align=center;verticalAlign=middle;whiteSpace=wrap;rounded=0;fontSize=20;" vertex="1" parent="1">
          <mxGeometry x="310" y="270" width="60" height="30" as="geometry" />
        </mxCell>
        <mxCell id="u3cb8cZpQzkLi7kSh3im-47" value="139" style="text;html=1;align=center;verticalAlign=middle;whiteSpace=wrap;rounded=0;fontSize=20;" vertex="1" parent="1">
          <mxGeometry x="510" y="270" width="60" height="30" as="geometry" />
        </mxCell>
        <mxCell id="u3cb8cZpQzkLi7kSh3im-49" value="本地磁盘" style="rounded=1;whiteSpace=wrap;html=1;fontSize=16;fillColor=#FFE599;" vertex="1" parent="1">
          <mxGeometry x="82.5" y="680" width="627.5" height="60" as="geometry" />
        </mxCell>
        <mxCell id="u3cb8cZpQzkLi7kSh3im-62" value="" style="shape=flexArrow;endArrow=classic;html=1;rounded=0;exitX=0.801;exitY=0.879;exitDx=0;exitDy=0;exitPerimeter=0;" edge="1" parent="1">
          <mxGeometry width="50" height="50" relative="1" as="geometry">
            <mxPoint x="584.6300000000001" y="589.9999999999999" as="sourcePoint" />
            <mxPoint x="584.5" y="669.93" as="targetPoint" />
          </mxGeometry>
        </mxCell>
        <mxCell id="u3cb8cZpQzkLi7kSh3im-69" value="" style="shape=flexArrow;endArrow=classic;html=1;rounded=0;exitX=0.801;exitY=0.879;exitDx=0;exitDy=0;exitPerimeter=0;" edge="1" parent="1">
          <mxGeometry width="50" height="50" relative="1" as="geometry">
            <mxPoint x="394.6300000000001" y="589.9999999999999" as="sourcePoint" />
            <mxPoint x="394.5" y="669.93" as="targetPoint" />
          </mxGeometry>
        </mxCell>
        <mxCell id="u3cb8cZpQzkLi7kSh3im-70" value="" style="shape=flexArrow;endArrow=classic;html=1;rounded=0;exitX=0.801;exitY=0.879;exitDx=0;exitDy=0;exitPerimeter=0;" edge="1" parent="1">
          <mxGeometry width="50" height="50" relative="1" as="geometry">
            <mxPoint x="189.1300000000001" y="589.9999999999999" as="sourcePoint" />
            <mxPoint x="189" y="669.93" as="targetPoint" />
          </mxGeometry>
        </mxCell>
        <mxCell id="u3cb8cZpQzkLi7kSh3im-72" value="MYSQL" style="rounded=1;whiteSpace=wrap;html=1;fontSize=16;fillColor=#FFE599;" vertex="1" parent="1">
          <mxGeometry x="82.5" y="790" width="307" height="60" as="geometry" />
        </mxCell>
        <mxCell id="u3cb8cZpQzkLi7kSh3im-73" value="HIVE" style="rounded=1;whiteSpace=wrap;html=1;fontSize=16;fillColor=#FFE599;" vertex="1" parent="1">
          <mxGeometry x="403" y="790" width="307" height="60" as="geometry" />
        </mxCell>
      </root>
    </mxGraphModel>
  </diagram>
</mxfile>
